<svg xmlns="http://www.w3.org/2000/svg" width="22" height="22" viewBox="0 0 22 22">
  <defs>
    <linearGradient id="a" x1="100%" x2="0%" y1="100%" y2="0%">
      <stop stop-color="#596981" offset="0%"/>
      <stop stop-color="#828EA0" offset="100%"/>
    </linearGradient>
  </defs>
  <path fill="url(#a)" fill-rule="evenodd" d="M14.7573035,6.69456067 C14.4219103,6.69456067 14.086517,6.56066946 13.9523597,6.22594142 L13.5498878,5.22175732 C13.4157305,4.9539749 13.4828091,4.48535565 13.6840451,4.21757322 L14.2206743,3.68200837 C14.4889889,3.41422594 14.4889889,3.07949791 14.2206743,2.81171548 L13.3486518,1.94142259 C13.0803372,1.67364017 12.744944,1.67364017 12.4766293,1.94142259 L11.9400001,2.47698745 C11.6716855,2.74476987 11.2692136,2.81171548 10.9338203,2.61087866 L9.92764056,2.20920502 C9.52516864,2.07531381 9.39101134,1.67364017 9.39101134,1.33891213 L9.39101134,0.60251046 C9.39101134,0.267782427 9.12269673,0 8.78730347,0 L7.37865176,0 C7.0432585,0 6.70786524,0.267782427 6.70786524,0.60251046 L6.70786524,1.33891213 C6.70786524,1.67364017 6.57370794,2.0083682 6.23831467,2.14225941 L5.23213489,2.54393305 C4.96382028,2.67782427 4.49426971,2.61087866 4.2259551,2.41004184 L3.68932588,1.87447699 C3.42101127,1.60669456 3.08561801,1.60669456 2.8173034,1.87447699 L1.94528092,2.74476987 C1.67696631,3.0125523 1.67696631,3.34728033 1.94528092,3.61506276 L2.48191014,4.15062762 C2.75022475,4.41841004 2.8173034,4.82008368 2.61606744,5.15481172 L2.21359553,6.15899582 C2.07943822,6.56066946 1.67696631,6.69456067 1.34157305,6.69456067 L0.603707872,6.69456067 C0.26831461,6.69456067 0,6.9623431 0,7.29707113 L0,8.76987448 C0,9.10460251 0.26831461,9.37238494 0.603707872,9.37238494 L1.34157305,9.37238494 C1.67696631,9.37238494 2.01235957,9.50627615 2.14651688,9.84100418 L2.54898879,10.8451883 C2.6831461,11.1129707 2.61606744,11.58159 2.41483149,11.8493724 L1.87820227,12.3849372 C1.60988766,12.6527197 1.60988766,12.9874477 1.87820227,13.2552301 L2.75022475,14.125523 C3.01853936,14.3933054 3.35393262,14.3933054 3.62224723,14.125523 L4.15887645,13.5899582 C4.42719106,13.3221757 4.82966297,13.2552301 5.16505624,13.4560669 L6.17123602,13.8577406 C6.50662928,13.9916318 6.64078659,14.3263598 6.64078659,14.6610879 L6.64078659,15.3974895 C6.64078659,15.7322176 6.9091012,16 7.24449446,16 L8.72022481,16 C9.05561807,16 9.32393268,15.7322176 9.32393268,15.3974895 L9.32393268,14.7280335 C9.32393268,14.3933054 9.45808999,14.0585774 9.79348325,13.9246862 L10.799663,13.5230126 C11.0679776,13.3891213 11.5375282,13.4560669 11.8058428,13.6569038 L12.342472,14.1924686 C12.6107867,14.460251 12.9461799,14.460251 13.2144945,14.1924686 L14.086517,13.3221757 C14.3548316,13.0543933 14.3548316,12.7196653 14.086517,12.4518828 L13.5498878,11.916318 C13.2815732,11.6485356 13.2144945,11.2468619 13.4157305,10.9121339 L13.8182024,9.90794979 C13.885281,9.57322176 14.287753,9.43933054 14.6231462,9.43933054 L15.3610114,9.43933054 C15.6964047,9.43933054 15.9647193,9.17154812 15.9647193,8.83682008 L15.9647193,7.36401674 C16.0988766,6.9623431 15.830562,6.69456067 15.4951687,6.69456067 L14.7573035,6.69456067 Z M12,8 C12,10.1818182 10.1818182,12 8,12 C5.81818182,12 4,10.1818182 4,8 C4,5.81818182 5.81818182,4 8,4 C10.1818182,4 12,5.81818182 12,8 Z M20.5687843,14.59878 C20.3758274,14.6806853 20.1501732,14.685561 19.9912476,14.5257489 L19.5144705,14.0463126 C19.3718934,13.9250154 19.2960447,13.6390304 19.3464245,13.4358278 L19.524367,12.9966604 C19.6133382,12.7770767 19.5315953,12.5845025 19.3118354,12.4959674 L18.5976157,12.2082283 C18.3778558,12.1196932 18.1848989,12.2015986 18.0959277,12.4211823 L17.9179852,12.8603497 C17.829014,13.0799333 17.6138142,13.2167346 17.3718115,13.1830954 L16.6948491,13.1977225 C16.4306036,13.2189792 16.2553294,13.0206523 16.1735864,12.828078 L15.993752,12.4044147 C15.9120091,12.2118405 15.6922492,12.1233054 15.4992923,12.2052108 L14.6888731,12.5492133 C14.4959161,12.6311187 14.3683535,12.8670834 14.4500964,13.0596577 L14.6299308,13.483321 C14.7116737,13.6758952 14.7162339,13.9012316 14.5559741,14.0601667 L14.0751947,14.5369718 C13.9535263,14.6795258 13.667038,14.7556785 13.4636267,14.7056583 L13.0241069,14.5285881 C12.804347,14.440053 12.61139,14.5219583 12.5224188,14.741542 L12.2332623,15.455189 C12.1442911,15.6747727 12.226034,15.8673469 12.4457939,15.955882 L12.8853137,16.1329522 C13.1050736,16.2214873 13.2417565,16.4361953 13.2077252,16.6779128 L13.2214056,17.3539219 C13.2423143,17.6177731 13.0434631,17.7930893 12.8505062,17.8749946 L12.4260009,18.0551865 C12.2330439,18.1370918 12.1440727,18.3566755 12.2258156,18.5492497 L12.5854844,19.3965764 C12.6672273,19.5891506 12.8869872,19.6776857 13.0799442,19.5957804 L13.5044495,19.4155885 C13.6974064,19.3336832 13.9230606,19.3288075 14.0819863,19.4886196 L14.5587633,19.9680559 C14.7013405,20.0893531 14.7771891,20.3753381 14.7268093,20.5785407 L14.5488668,21.0177081 C14.4598956,21.2372918 14.5416385,21.429866 14.7613984,21.5184011 L15.4756181,21.8061402 C15.695378,21.8946753 15.8883349,21.8127699 15.9773062,21.5931862 L16.1552486,21.1540188 C16.2442198,20.9344352 16.4594196,20.7976339 16.7014223,20.8312731 L17.3783847,20.816646 C17.6040388,20.8117704 17.7629645,20.9715825 17.8447074,21.1641567 L18.0245418,21.58782 C18.1062847,21.7803942 18.3260446,21.8689293 18.5190016,21.787024 L19.3680122,21.4266404 C19.5609691,21.344735 19.6499403,21.1251513 19.5681974,20.9325771 L19.4047116,20.5474286 C19.3229687,20.3548544 19.3184086,20.129518 19.4786683,19.9705829 L19.9594477,19.4937777 C20.0811161,19.3512237 20.3676044,19.2750711 20.5710157,19.3250913 L21.0105355,19.5021615 C21.2302954,19.5906966 21.4232524,19.5087912 21.5122236,19.2892076 L21.8013801,18.5755606 C21.8903513,18.3559769 21.8086084,18.1634027 21.5888485,18.0748676 L21.1493287,17.8977974 C20.9295689,17.8092623 20.792886,17.5945543 20.8269172,17.3528368 L20.8132368,16.6768277 C20.7700853,16.4678723 20.9689365,16.2925562 21.1618934,16.2106508 L21.5863987,16.030459 C21.7793557,15.9485537 21.8683269,15.72897 21.786584,15.5363957 L21.4269152,14.6890691 C21.4060065,14.4252179 21.1862466,14.3366828 20.9932896,14.4185881 L20.5687843,14.59878 Z M17.8959199,19.3339511 C16.6228557,19.8226346 15.1547325,19.1689841 14.6660489,17.8959199 C14.1773654,16.6228557 14.8310159,15.1547325 16.1040801,14.6660489 C17.3771443,14.1773654 18.8452675,14.8310159 19.3339511,16.1040801 C19.8226346,17.3771443 19.1689841,18.8452675 17.8959199,19.3339511 Z"/>
</svg>
